# xmcd
#
# Track frame offsets: 
#        182
#        12957
#        25802
#        38400
#        51292
#        88307
#        105400
#        119395
#        129432
#        145355
#        157935
#        171150
#        183300
#        207195
#        219992
#        237587
#
# Disc length: 3330 seconds
#
# Revision: 6
# Processed by: cddbd v1.5.2PL0 Copyright (c) Steve Scherf et al.
# Submitted via: ExactAudioCopy v1.0b3
#
DISCID=d50d0010
DTITLE=Bobby Bare - The Collection
DYEAR=1993
DGENRE=Country
TTITLE0=Detroit City (1963)
TTITLE1=Four strong winds (1964)
TTITLE2=Green, green grass of home (1966)
TTITLE3=Folsom prison blues (1968)
TTITLE4=Rosalie's good eats cafe (1973)
TTITLE5=Hard time hungrys (1974)
TTITLE6=Singin' in the kitchen (1974)
TTITLE7=Dropkick me, Jesus (1976)
TTITLE8=Sunday mornin' comin' down (1969)
TTITLE9=Lullabys, legends and lies (1973)
TTITLE10=Marie Laveau (1973)
TTITLE11=Daddy, what if (1973)
TTITLE12=The winner (1973)
TTITLE13=The mermaid (1973)
TTITLE14=Up against the wall (redneck mother) (1975)
TTITLE15=500 miles away from home (1963)
EXTD=
EXTT0=
EXTT1=
EXTT2=
EXTT3=
EXTT4=
EXTT5=
EXTT6=
EXTT7=
EXTT8=
EXTT9=
EXTT10=
EXTT11=
EXTT12=
EXTT13=
EXTT14=
EXTT15=
PLAYORDER=
